<?xml version="1.0" encoding="UTF-8"?>
<svg id="Isolation_Mode" xmlns="http://www.w3.org/2000/svg" version="1.1" viewBox="0 0 2177.74 734.67">
  <!-- Generator: Adobe Illustrator 30.2.1, SVG Export Plug-In . SVG Version: 2.1.1 Build 1)  -->
  <defs>
    <style>
      .st0 {
        fill: #fff;
      }
    </style>
  </defs>
  <g>
    <path class="st0" d="M374.68,707.47l-41.33-60.69,38.36-56.34c.5-.71.57-1.61.19-2.4-.38-.79-1.1-1.26-1.93-1.26h-26.64c-.69,0-1.34.35-1.75.95l-24.22,35.57-24.23-35.57c-.39-.59-1.05-.95-1.74-.95h-26.63c-.83,0-1.55.47-1.93,1.26-.37.79-.31,1.68.17,2.39l38.38,56.35-41.32,60.68c-.5.71-.57,1.61-.19,2.4.38.79,1.1,1.26,1.93,1.26h26.63c.69,0,1.34-.35,1.75-.95l27.18-39.91,27.18,39.91c.39.59,1.05.95,1.74.95h26.63c.83,0,1.55-.47,1.93-1.26.37-.79.31-1.68-.17-2.39M742.46,583.12c0-7.77-5.67-14.05-12.69-14.05s-12.67,6.28-12.67,14.05,5.67,14.04,12.67,14.04,12.69-6.29,12.69-14.04M739.46,583.12c0,6.24-4.21,10.9-9.68,10.9s-9.67-4.65-9.67-10.9,4.21-10.91,9.67-10.91,9.68,4.65,9.68,10.91M735.5,590.57l-2.84-6.29c1.29-.58,2.48-1.9,2.48-3.96,0-2.48-1.75-4.69-4.48-4.69h-5.5v14.94h3.02v-5.79h1.43l2.45,5.79h3.45ZM732.14,580.32c0,1.05-.75,1.95-1.87,1.95h-2.09v-3.88h2.09c1.12,0,1.87.89,1.87,1.94M712.23,601.23c8.58,11.1,10.82,26.49,10.44,40.25l.04,69.98s-30.43.07-55.2.07c-31.77,0-48.76-11.83-48.76-41.19s16.99-39.54,47.45-40.59c9.64-.44,21.75-.28,26.32-.18,1.24.03,2.26-1.05,2.17-2.28-1.89-24.85-37.33-19.92-53.27-13.71-1.32.51-2.81,1.07-4.09.47-1.1-.51-1.68-1.71-2.18-2.81-2.47-5.51-4.94-11.03-7.41-16.55-.39-.88-.77-1.97-.21-2.75.3-.41.79-.62,1.25-.81,12.29-5.01,28.13-8.52,43.3-7.91,15.67.63,30.62,5.67,40.16,18.03M695.57,655.74c0-1.14-.86-2.07-1.99-2.13-4.24-.22-16.07-1.05-27.05-.14-12.67,1-21.32,4.21-21.32,17.32s7.39,18.22,23,18.33c2.8.03,9.08.03,11.35.03,5.19,0,9.35-.05,13.9-.14,1.16-.02,2.11-.05,2.11-.05v-33.23ZM490.5,648.81c0,37.4-26.5,65.52-61.1,65.52s-61.37-28.12-61.37-65.52,27.04-65.52,61.37-65.52,61.1,28.12,61.1,65.52M462.38,648.81c0-23.04-12.71-39.19-32.98-39.19s-33.26,16.16-33.26,39.19,12.98,39.49,33.26,39.49,32.98-16.45,32.98-39.49M105.47,649.51s1.43-.51,3.18-1.28c20.89-9.17,34.56-27.09,34.56-51.05,0-44.88-28.93-59.61-66.78-59.61H17.17c-1.32,0-2.38,1.18-2.38,2.64v168.79c0,1.46,1.07,2.64,2.38,2.64h23.89c1.32,0,2.38-1.18,2.38-2.64v-136.36c0-4.34,3.27-7.24,6.54-7.24h25.36c24.06,0,38.39,5.46,38.39,31.79,0,23.16-14.06,30.64-38.39,30.64h-21.49s2.68,3.89,4.3,6.2c5.7,8.12,54.02,76.61,54.02,76.61.53.73,1.24,1,1.87,1h31c1.93,0,2.97-2.52,1.91-4.11l-41.48-58.02ZM266.61,656.54c-.03,1.43-1.19,2.44-2.38,2.44h-86.1c-1.53,0-2.73,1.55-2.24,3.51,4.1,16.22,15.76,26.41,35.21,26.41,13.64,0,23.87-5.54,30.48-11.77.98-.93,2.38-.93,3.34.22l12.61,14.67c.94,1.09.92,2.82-.07,3.85-10.4,10.71-24.62,18.46-46.09,18.46-38.93,0-64.07-27.83-64.07-65.52s26.49-65.52,60.56-65.52c37.88,0,59.55,30.66,58.76,73.26M240.27,634.67c-3.16-15.31-12.58-26.25-30.24-26.25-16.47,0-28.19,9.46-32.27,26.17-.42,1.73.77,3.45,2.39,3.45h57.7c1.59,0,2.77-1.65,2.41-3.37M608.1,635.31c-.02-15.92-5.37-32-18.13-42.14-13.73-10.91-36.44-13.14-52.41-4.8-3.47,1.81-6.64,4.27-9.54,7.16l-.04-6.79c.04-1.51-1.06-2.76-2.43-2.76h-22.37c-1.34,0-2.44,1.21-2.44,2.69l.2,68.42c-.05,1.16-.11,2.31-.11,3.55,0,0-.07,33.18-.09,47.96,0,1.66,1.33,2.98,2.98,2.98h23.77c1.65,0,2.98-1.34,2.98-2.99v-71.13c0-18.59,8.62-27.31,22.31-27.31.29,0,.54.01.82.05.28,0,.58,0,.86-.02.28,0,.58.01.86-.02.27,0,.53-.02.82-.02,13.68,0,22.31,8.72,22.31,27.31v71.13c0,1.65,1.34,2.99,2.98,2.99h23.76c1.65,0,2.99-1.32,2.98-2.98-.01-14.78-.09-73.28-.09-73.3"/>
    <path class="st0" d="M554.07,24.9c-.45-.68-1.05-1.25-1.74-1.67-1.85-1.11-4.13-.97-5.92.2-.59.39-1.09.9-1.57,1.42-1.66,1.84-3.32,3.67-4.98,5.51-1.71,1.9-3.43,3.81-5.14,5.71-1.01,1.13-2.02,2.25-3.03,3.38-.12.13-.24.27-.36.4-2.08,2.33-4.26,4.77-6.54,7.34-.03.04-.06.07-.09.11-4.75,5.35-9.93,11.2-15.51,17.57-2.54,2.91-5.09,5.81-7.63,8.73-2.71,3.1-5.41,6.21-8.1,9.32-2.84,3.28-5.68,6.57-8.51,9.86-2.98,3.45-5.95,6.91-8.91,10.38-3.1,3.62-6.19,7.25-9.27,10.88-3.21,3.78-6.42,7.57-9.62,11.37-3.32,3.94-6.64,7.89-9.95,11.84-3.43,4.09-6.84,8.19-10.25,12.29-3.52,4.24-7.03,8.48-10.53,12.73-3.61,4.37-7.2,8.76-10.79,13.15-3.68,4.51-7.36,9.02-11.03,13.55-3.76,4.64-7.5,9.28-11.24,13.93-3.82,4.76-7.63,9.52-11.44,14.3-3.88,4.87-7.75,9.76-11.61,14.65-3.93,4.98-7.85,9.98-11.75,14.98-3.98,5.09-7.94,10.19-11.88,15.3-4.01,5.19-8.01,10.39-11.99,15.6-4.04,5.28-8.06,10.58-12.07,15.88-1.92,2.54-3.76,5.12-5.68,7.65-1.77,2.34-3.56,4.76-5.77,6.71-2.98,2.64-6.71,4.47-10.71,4.76-2.94.22-5.91-.33-8.58-1.58-2.45-1.14-4.67-2.87-6.92-4.35-4.82-3.16-9.64-6.31-14.46-9.46-5.11-3.33-10.22-6.66-15.34-9.98-5.3-3.43-10.61-6.86-15.93-10.27-5.4-3.47-10.8-6.92-16.22-10.36-5.37-3.41-10.74-6.8-16.13-10.17-2.93-1.81-6.73-1.44-9.25.93-2.51,2.38-3.11,6.16-1.47,9.2,21.47,39.73,42.63,80.07,62.9,119.88,17.91,35.18,36.12,71.95,54.27,109.55,1.98,4,5.97,6.5,10.43,6.5s8.8-2.72,10.65-6.97l.18-.35c16.29-38.47,33.1-76.99,49.97-114.5,61.13-135.94,116.54-250.26,169.4-349.48.55-1.03,1.05-2.16,1.05-3.42-.02-1.07-.35-2.12-.94-3.01"/>
  </g>
  <rect class="st0" x="860.34" y="10.39" width="3.61" height="713.89"/>
  <g>
    <path class="st0" d="M1003.77,290.64h26.13v64.66h63.14v-64.66h26.13v152.4h-26.13v-64.88h-63.14v64.88h-26.13v-152.4Z"/>
    <path class="st0" d="M1314.87,382.74l-51.6-83.39v-8.71h25.69l39.19,67.49,40.5-67.49h23.95v8.71l-51.6,82.3v61.4h-26.13v-60.31Z"/>
    <path class="st0" d="M1531.92,290.64h65.53c30.05,0,45.94,17.64,45.94,46.81,0,19.81-8.71,36.36-26.78,43.98l28.52,52.91v8.71h-25.69l-31.35-58.57h-30.05v58.57h-26.13v-152.4ZM1592.66,362.27c15.24,0,24.17-7.4,24.17-24.38s-8.93-24.39-24.17-24.39h-34.62v48.77h34.62Z"/>
    <path class="st0" d="M1781.18,391.45v-49.21c0-34.62,23.29-54.87,59.87-54.87s59.87,20.25,59.87,54.87v49.21c0,34.62-23.3,54.86-59.87,54.86s-59.87-20.25-59.87-54.86ZM1874.8,392.76v-51.82c0-16.33-11.11-29.61-33.75-29.61s-33.75,13.28-33.75,29.61v51.82c0,16.33,11.1,29.61,33.75,29.61s33.75-13.28,33.75-29.61Z"/>
    <path class="st0" d="M2027.62,434.34l47.68-70.11-43.98-64.88v-8.71h26.56l33.75,53.12,35.27-53.12h25.04v8.71l-44.41,64.66,48.12,70.32v8.71h-26.56l-38.1-57.91-38.32,57.91h-25.04v-8.71Z"/>
  </g>
</svg>